<svg width="48" height="66" viewBox="0 0 48 66" fill="none" xmlns="http://www.w3.org/2000/svg">
<path d="M15.9597 60.2338H17.6537C18.2697 60.2338 18.811 60.1451 19.2777 59.9678C19.7537 59.7905 20.1224 59.5338 20.3837 59.1978C20.6544 58.8525 20.7897 58.4371 20.7897 57.9518C20.7897 57.3918 20.6544 56.9298 20.3837 56.5658C20.1224 56.2018 19.7537 55.9311 19.2777 55.7538C18.811 55.5765 18.2697 55.4878 17.6537 55.4878H14.6997V65.2878H17.8217C18.5124 65.2878 19.119 65.1898 19.6417 64.9938C20.1737 64.7885 20.589 64.4758 20.8877 64.0558C21.1957 63.6358 21.3497 63.1038 21.3497 62.4598C21.3497 61.9931 21.2564 61.5918 21.0697 61.2558C20.883 60.9198 20.6217 60.6445 20.2857 60.4298C19.959 60.2151 19.5857 60.0565 19.1657 59.9538C18.7457 59.8511 18.2977 59.7998 17.8217 59.7998H15.9597V60.7098H17.7237C18.0037 60.7098 18.2604 60.7425 18.4937 60.8078C18.727 60.8638 18.9277 60.9618 19.0957 61.1018C19.273 61.2325 19.4084 61.4005 19.5017 61.6058C19.6044 61.8018 19.6557 62.0305 19.6557 62.2918C19.6557 62.6558 19.5717 62.9591 19.4037 63.2018C19.2357 63.4445 19.007 63.6265 18.7177 63.7478C18.4284 63.8691 18.097 63.9298 17.7237 63.9298H16.3517V56.8458H17.5417C17.999 56.8458 18.3724 56.9578 18.6617 57.1818C18.951 57.4058 19.0957 57.7231 19.0957 58.1338C19.0957 58.4045 19.0304 58.6378 18.8997 58.8338C18.769 59.0205 18.587 59.1651 18.3537 59.2678C18.1204 59.3705 17.8497 59.4218 17.5417 59.4218H15.9597V60.2338Z" fill="#BB5644"/>
<path d="M26.9162 65.2878H31.8582V63.8318H26.9162V65.2878ZM26.9162 56.9438H31.8582V55.4878H26.9162V56.9438ZM26.9162 60.7518H31.5782V59.3238H26.9162V60.7518ZM25.8942 55.4878V65.2878H27.5182V55.4878H25.8942Z" fill="#BB5644"/>
<path d="M0.928223 42.5641V14.1185L23.5655 42.5641L46.2876 14.1185V42.5641M0.928223 42.5641H46.2876M0.928223 42.5641L28.5198 8.05356L23.5655 1.98853L18.7816 8.05356L46.2876 42.5641" stroke="#BB5644" stroke-width="1.5"/>
</svg>
