<svg width="101" height="35" viewBox="0 0 101 35" fill="none" xmlns="http://www.w3.org/2000/svg">
<path d="M1.51005 19.1377V5.83865C1.51005 3.71121 1.64629 2.76801 0.116211 2.76801V2.45361H10.1036V2.76801C8.605 2.76801 8.66788 3.32345 8.66788 5.83865V19.3788C8.66788 23.4974 10.8372 25.2476 14.1489 25.2476C17.8798 25.2476 19.7662 22.659 19.7662 19.3788V10.3031C19.7662 7.44209 18.8544 2.76801 15.5427 2.76801V2.45361H24.6918L24.7232 2.76801C20.8142 2.76801 20.0806 7.44209 20.0806 10.3031V19.3788C20.0806 23.99 17.0099 27.3331 10.8687 27.3331C6.12124 27.3331 1.51005 24.8179 1.51005 19.1273V19.1377Z" fill="#4E4540"/>
<path d="M40.391 15.9936C39.2068 17.356 37.1841 17.4922 35.7798 16.3394C35.1196 15.7106 34.6585 14.9771 34.6585 14.1701C34.6585 13.7195 33.5371 13.9605 32.1118 16.1298V23.0781C32.1118 24.9959 32.29 26.3898 33.5476 26.7461V27.029H24.8178V26.7461C26.1487 26.3583 26.1802 24.8597 26.1802 23.0781V14.5683C26.1802 13.3422 25.761 12.8601 24.3252 12.3361V12.0531L32.1118 10.5859V15.4696C34.5851 11.7387 35.6331 11.3195 36.6811 10.827C37.6557 10.3763 39.1229 10.5859 40.0347 11.3824C41.3971 12.5667 41.5752 14.6627 40.3805 15.9936H40.391Z" fill="#4E4540"/>
<path d="M61.8228 18.687C61.8228 25.5933 57.2116 27.3435 52.7472 27.3435C49.9909 27.3435 48.3456 26.6833 47.4024 25.8029C46.281 26.5365 42.5502 27.4064 42.5502 26.8509V4.96872C42.5502 3.78448 42.2043 3.26048 40.7686 2.73649V2.45353L48.4504 0.986328V13.2374C49.4669 11.4873 51.2066 10.586 54.4554 10.586C59.2762 10.586 61.8228 14.3588 61.8228 18.687ZM54.8117 19.1796C54.8117 15.0924 53.8371 11.6445 51.3219 11.6445C48.9849 11.6445 48.4609 14.5055 48.4609 17.1989V20.8983C48.4609 24.8807 49.2678 27.0396 51.3533 27.0396C53.3131 27.0396 54.8117 24.7759 54.8117 19.1901V19.1796Z" fill="#4E4540"/>
<path d="M81.1578 24.7969C80.6653 26.3374 78.8522 27.3435 76.6514 27.3435C76.6514 27.3435 72.7739 27.3435 72.4595 24.1995C72.0088 26.0125 70.2272 27.3435 67.7435 27.3435C66.4125 27.3435 63.3838 26.7461 63.3838 23.7803C63.3838 20.2905 66.2134 19.6302 72.428 18.163V15.9308C72.428 12.3047 70.3739 10.345 67.9635 11.6026C67.9635 11.6026 67.1985 12.0532 68.3827 12.4724C68.9801 12.682 69.3574 13.1746 69.6403 13.8034C70.1643 15.0924 69.567 16.4862 68.2779 17.0521C67.0203 17.5447 65.5951 16.9473 65.0711 15.6897C64.7252 14.778 64.8929 13.73 65.4903 13.1117C65.9095 12.661 66.5383 12.0322 67.8273 11.3301C69.3993 10.4917 71.1075 10.5965 71.1075 10.5965C75.6768 10.5965 78.2234 13.4575 78.2234 17.5761V22.7742C78.2234 22.7742 78.2234 25.2894 79.9002 25.2161C79.9002 25.2161 80.7701 25.2161 80.9482 24.6187L81.1578 24.7969ZM72.428 18.5089C69.567 19.1377 69.5984 21.2651 69.5984 22.9105C69.5984 22.9105 69.567 25.2161 70.9608 25.2161C71.5582 25.2161 72.0403 24.7235 72.428 23.8851V18.5089Z" fill="#4E4540"/>
<path d="M100.116 26.7461V27.029H91.3866V26.7461C92.7176 26.3583 92.7805 24.8282 92.7805 23.0466V16.0355C92.7805 14.0443 92.0469 13.1011 90.3701 13.1011C89.605 13.1011 88.7981 13.7299 88.316 14.4635V23.0886C88.316 25.0064 88.4942 26.4002 89.7518 26.7566V27.0395H81.0219V26.7566C82.3529 26.3688 82.3843 24.9016 82.3843 23.0886V14.5683C82.3843 13.3422 81.9966 12.8601 80.5713 12.3361V12.0531L88.316 10.5859V13.971C89.2278 12.1265 91.0722 10.5859 92.9586 10.5859C95.7463 10.5859 98.6807 11.7073 98.6807 15.8888V23.0466C98.6807 24.9645 98.8903 26.4317 100.116 26.7461Z" fill="#4E4540"/>
<path d="M83.3796 34.2708C83.2958 34.2708 83.2015 34.2812 83.0967 34.2917C83.191 34.3022 83.2853 34.3127 83.3796 34.2708Z" fill="#4E4540"/>
</svg>
