<svg width="101" height="40" viewBox="0 0 101 40" fill="none" xmlns="http://www.w3.org/2000/svg">
<path d="M0.116699 26.2395V3.2146H5.71961V26.2395H0.116699Z" fill="#4E4540"/>
<path d="M11.5095 23.9111C9.81514 22.2063 8.97314 19.9298 8.97314 17.0919C8.97314 14.2541 9.81514 11.9776 11.5095 10.2832C13.2039 8.58882 15.3973 7.74683 18.0896 7.74683C20.3141 7.74683 22.206 8.29776 23.7652 9.39963C25.3141 10.5015 26.3432 12.0815 26.8526 14.1398H20.7819C20.2621 13.0483 19.3993 12.4973 18.2039 12.4973C17.0085 12.4973 16.1249 12.9235 15.5428 13.7551C14.9607 14.5971 14.6696 15.7094 14.6696 17.0815C14.6696 18.4537 14.9607 19.5659 15.5428 20.4079C16.1249 21.2499 16.9669 21.6657 18.0792 21.6657C18.7756 21.6657 19.3266 21.541 19.7216 21.3019C20.1166 21.0628 20.4596 20.6366 20.7715 20.0233H26.8422C26.3432 21.988 25.3037 23.5576 23.7237 24.7115C22.154 25.8757 20.2725 26.4474 18.0792 26.4474C15.3869 26.4474 13.1935 25.5951 11.4991 23.8903L11.5095 23.9111Z" fill="#4E4540"/>
<path d="M31.1256 23.8797C29.2753 22.1542 28.3501 19.8777 28.3501 17.0606C28.3501 14.2436 29.2649 11.9878 31.1048 10.2935C32.9447 8.59907 35.2108 7.75708 37.9239 7.75708C40.637 7.75708 42.9031 8.60947 44.7326 10.2935C46.5622 11.9878 47.4665 14.2436 47.4665 17.0606C47.4665 19.8777 46.5622 22.1542 44.743 23.8797C42.9239 25.6053 40.6682 26.4681 37.9551 26.4681C35.242 26.4681 32.9655 25.6053 31.1152 23.8797H31.1256ZM40.6474 20.5014C41.3854 19.7113 41.7597 18.5783 41.7597 17.0918C41.7597 15.6053 41.375 14.4723 40.6162 13.703C39.847 12.9234 38.9426 12.5388 37.8927 12.5388C36.8428 12.5388 35.9385 12.9234 35.19 13.703C34.4312 14.4827 34.057 15.6157 34.057 17.0918C34.057 18.5679 34.4416 19.7113 35.2212 20.5014C36.0008 21.2914 36.9052 21.6864 37.9551 21.6864C39.005 21.6864 39.899 21.2914 40.6474 20.5014Z" fill="#4E4540"/>
<path d="M56.3534 7.94433V10.6366C57.5072 8.71356 59.3576 7.74683 61.8939 7.74683C63.9937 7.74683 65.6881 8.44329 66.9979 9.84661C68.2973 11.2499 68.9522 13.1522 68.9522 15.5535V26.2395H63.3804V16.3019C63.3804 15.1169 63.0686 14.2125 62.4449 13.568C61.8212 12.9235 60.9584 12.6013 59.8669 12.6013C58.7754 12.6013 57.9127 12.9235 57.289 13.568C56.6653 14.2125 56.3534 15.1273 56.3534 16.3019V26.2395H50.7505V7.94433H56.3534Z" fill="#4E4540"/>
<path d="M78.4843 5.87569C77.8502 6.50979 77.0705 6.82164 76.1558 6.82164C75.241 6.82164 74.4614 6.50979 73.8273 5.87569C73.1932 5.24159 72.8813 4.46197 72.8813 3.52642C72.8813 2.59087 73.1932 1.81124 73.8273 1.17715C74.4614 0.543049 75.241 0.231201 76.1558 0.231201C77.0705 0.231201 77.8502 0.543049 78.4843 1.17715C79.1184 1.81124 79.4302 2.59087 79.4302 3.52642C79.4302 4.46197 79.108 5.24159 78.4843 5.87569ZM73.3699 26.2395V7.9443H78.9728V26.2395H73.3699Z" fill="#4E4540"/>
<path d="M84.7732 23.9111C83.0788 22.2063 82.2368 19.9298 82.2368 17.0919C82.2368 14.2541 83.0788 11.9776 84.7732 10.2832C86.4676 8.58882 88.6609 7.74683 91.3532 7.74683C93.5778 7.74683 95.4697 8.29776 97.0289 9.39963C98.5778 10.5015 99.6069 12.0815 100.116 14.1398H94.0455C93.5258 13.0483 92.663 12.4973 91.4676 12.4973C90.2722 12.4973 89.3886 12.9235 88.8065 13.7551C88.2243 14.5971 87.9333 15.7094 87.9333 17.0815C87.9333 18.4537 88.2243 19.5659 88.8065 20.4079C89.3886 21.2499 90.2306 21.6657 91.3428 21.6657C92.0393 21.6657 92.5902 21.541 92.9853 21.3019C93.3803 21.0628 93.7233 20.6366 94.0352 20.0233H100.106C99.6069 21.988 98.5674 23.5576 96.9873 24.7115C95.4177 25.8757 93.5362 26.4474 91.3428 26.4474C88.6505 26.4474 86.4572 25.5951 84.7628 23.8903L84.7732 23.9111Z" fill="#4E4540"/>
<path d="M23.7131 34.3474V39.0044H22.5801V36.3744L21.499 39.0044H20.657L19.5759 36.3744V39.0044H18.4429V34.3474H19.7422L21.0832 37.5595L22.4138 34.3474H23.7131Z" fill="#4E4540"/>
<path d="M30.5734 34.3371V35.1998H28.8894V36.1978H30.3759V37.0606H28.8894V38.1416H30.5734V39.0044H27.7563V34.3267H30.5734V34.3371Z" fill="#4E4540"/>
<path d="M37.6218 34.3372H38.7548V39.0149H37.6218L35.7195 36.0731V39.0149H34.5864V34.3372H35.7195L37.6218 37.2789V34.3372Z" fill="#4E4540"/>
<path d="M44.3681 35.1791C44.2225 35.1791 44.1082 35.2207 44.0146 35.2934C43.9211 35.3662 43.8795 35.4805 43.8795 35.6157C43.8795 35.7508 43.9211 35.8756 44.0042 35.9587C44.0874 36.0419 44.2018 36.1146 44.3369 36.1562C44.472 36.2082 44.6176 36.2498 44.7839 36.2914C44.9502 36.3329 45.1165 36.3849 45.2828 36.4473C45.4492 36.5096 45.5947 36.5824 45.7298 36.6656C45.865 36.7591 45.9793 36.8839 46.0625 37.0398C46.1456 37.2061 46.1872 37.3932 46.1872 37.6219C46.1872 38.0169 46.0313 38.3496 45.709 38.6302C45.3868 38.9109 44.9606 39.0564 44.4408 39.0564C43.9211 39.0564 43.4949 38.9317 43.1726 38.6822C42.8504 38.4327 42.6945 38.0689 42.6945 37.6115H43.9003C43.9315 37.9857 44.1186 38.1729 44.472 38.1729C44.6383 38.1729 44.7631 38.1313 44.8566 38.0481C44.9502 37.965 44.9918 37.8506 44.9918 37.7155C44.9918 37.5803 44.9502 37.4764 44.867 37.3932C44.7839 37.3101 44.6695 37.2477 44.5344 37.1957C44.3993 37.1437 44.2537 37.1022 44.0874 37.0606C43.9211 37.019 43.7548 36.967 43.5884 36.9047C43.4221 36.8423 43.2766 36.7695 43.1415 36.6864C43.0063 36.6032 42.892 36.4785 42.8088 36.3121C42.7257 36.1458 42.6841 35.9587 42.6841 35.7404C42.6841 35.3038 42.8504 34.9608 43.1726 34.7009C43.4949 34.441 43.9107 34.3059 44.4097 34.3059C44.9086 34.3059 45.314 34.4203 45.6259 34.6489C45.9377 34.8776 46.0936 35.2415 46.1144 35.73H44.8774C44.8566 35.5637 44.8047 35.4286 44.7111 35.3454C44.6176 35.2519 44.5032 35.2103 44.3577 35.2103L44.3681 35.1791Z" fill="#4E4540"/>
<path d="M55.2931 34.3474H56.5197L55.2204 39.0044H53.921L53.0998 36.0522L52.289 39.0044H50.9896L49.6694 34.3474H50.8857L51.6965 37.6946L52.5281 34.3474H53.817L54.6175 37.6426L55.3035 34.3474H55.2931Z" fill="#4E4540"/>
<path d="M62.923 34.3371V35.1998H61.239V36.1978H62.7255V37.0606H61.239V38.1416H62.923V39.0044H60.106V34.3267H62.923V34.3371Z" fill="#4E4540"/>
<path d="M69.8987 39.0044L69.6388 38.2248H67.9652L67.7053 39.0044H66.4995L68.1211 34.3267H69.5037L71.1149 39.0044H69.8987ZM68.2563 37.362H69.3581L68.8072 35.6988L68.2563 37.362Z" fill="#4E4540"/>
<path d="M75.8445 37.1956V39.0044H74.7114V34.3474H76.5513C77.0919 34.3474 77.5077 34.4825 77.8091 34.7632C78.1106 35.0439 78.2561 35.3765 78.2561 35.7715C78.2561 36.0418 78.173 36.3017 78.0066 36.5615C77.8403 36.8214 77.5701 36.9981 77.2062 37.1021L78.3497 39.0044H77.0191L75.9692 37.1956H75.8341H75.8445ZM75.8445 35.2102V36.3329H76.5513C76.7281 36.3329 76.8632 36.2809 76.9567 36.1769C77.0607 36.073 77.1023 35.9378 77.1023 35.7715C77.1023 35.6052 77.0503 35.4701 76.9464 35.3661C76.8424 35.2622 76.7073 35.2102 76.5409 35.2102H75.8341H75.8445Z" fill="#4E4540"/>
</svg>
