<svg width="101" height="28" viewBox="0 0 101 28" fill="none" xmlns="http://www.w3.org/2000/svg">
<path d="M4.67767 5.0716V7.262C5.61641 5.69743 7.12409 4.9104 9.19123 4.9104C10.898 4.9104 12.2824 5.47934 13.3445 6.61721C14.4065 7.75508 14.9375 9.30069 14.9375 11.2635V19.9682H10.3955V11.8799C10.3955 10.9222 10.1395 10.1731 9.6369 9.65153C9.13434 9.13001 8.43265 8.86451 7.54132 8.86451C6.64998 8.86451 5.94829 9.13001 5.44573 9.65153C4.94317 10.1731 4.68715 10.9222 4.68715 11.8799V19.9682H0.116699V5.0716H4.67767Z" fill="#4E4540"/>
<path d="M19.423 18.0246C18.105 16.6023 17.4507 14.7722 17.4507 12.5534C17.4507 10.3345 18.105 8.50442 19.423 7.06312C20.741 5.6313 22.3435 4.91064 24.24 4.91064C26.1364 4.91064 27.5872 5.61233 28.6018 7.01571V5.06236H33.1628V19.959H28.6018V17.797C27.5019 19.3616 26.0227 20.1487 24.1736 20.1487C22.3246 20.1487 20.741 19.4375 19.423 18.0151V18.0246ZM27.6157 15.2463C28.27 14.6015 28.6018 13.7007 28.6018 12.5249C28.6018 11.3491 28.27 10.4483 27.6157 9.81298C26.9614 9.17767 26.2028 8.86475 25.3494 8.86475C24.496 8.86475 23.7374 9.18715 23.0832 9.82246C22.4289 10.4673 22.097 11.3681 22.097 12.5439C22.097 13.7197 22.4289 14.6205 23.0832 15.2558C23.7374 15.8911 24.496 16.204 25.3494 16.204C26.2028 16.204 26.9614 15.8816 27.6157 15.2463Z" fill="#4E4540"/>
<path d="M43.2323 16.0995H44.8633V19.9683H42.5401C40.8618 19.9683 39.5722 19.5985 38.6524 18.8589C37.7326 18.1193 37.2775 16.8486 37.2775 15.0565V8.86456H35.8931V5.07165H37.2775V1.43994H41.8384V5.07165H44.8254V8.86456H41.8384V15.0565C41.8384 15.7487 42.3031 16.0995 43.2229 16.0995H43.2323Z" fill="#4E4540"/>
<path d="M57.8355 5.07178H62.3965V19.9684H57.8355V17.778C56.8873 19.3426 55.3891 20.1296 53.3219 20.1296C51.6151 20.1296 50.2307 19.5607 49.1687 18.4228C48.1067 17.2849 47.5757 15.7393 47.5757 13.7765V5.07178H52.1177V13.1602C52.1177 14.1179 52.3737 14.867 52.8763 15.3885C53.3788 15.91 54.0805 16.1755 54.9719 16.1755C55.8632 16.1755 56.5649 15.91 57.0674 15.3885C57.5795 14.867 57.826 14.1179 57.826 13.1602V5.07178H57.8355Z" fill="#4E4540"/>
<path d="M70.7024 5.07184V7.85015C71.7739 5.8968 73.1962 4.91064 74.9789 4.91064V9.55696H73.86C72.8074 9.55696 72.0204 9.8035 71.4989 10.3061C70.9774 10.8086 70.7118 11.681 70.7118 12.9232V19.9685H66.1509V5.07184H70.7118H70.7024Z" fill="#4E4540"/>
<path d="M78.0705 18.0244C76.7524 16.602 76.0981 14.772 76.0981 12.5531C76.0981 10.3343 76.7524 8.50418 78.0705 7.06288C79.3885 5.63105 80.991 4.9104 82.8875 4.9104C84.7839 4.9104 86.2347 5.61209 87.2493 7.01546V5.06212H91.8103V19.9588H87.2493V17.7968C86.1494 19.3614 84.6701 20.1484 82.8211 20.1484C80.972 20.1484 79.3885 19.4372 78.0705 18.0149V18.0244ZM86.2631 15.2461C86.9174 14.6013 87.2493 13.7005 87.2493 12.5247C87.2493 11.3489 86.9174 10.448 86.2631 9.81273C85.6089 9.17742 84.8503 8.86451 83.9969 8.86451C83.1435 8.86451 82.3849 9.1869 81.7306 9.82222C81.0763 10.467 80.7445 11.3678 80.7445 12.5436C80.7445 13.7194 81.0763 14.6202 81.7306 15.2556C82.3849 15.8909 83.1435 16.2038 83.9969 16.2038C84.8503 16.2038 85.6089 15.8814 86.2631 15.2461Z" fill="#4E4540"/>
<path d="M95.5562 19.9684V0.216797H100.117V19.9684H95.5562Z" fill="#4E4540"/>
<path d="M5.03809 22.5759V27.0516H4.29847V23.9793L2.93302 27.0516H2.42098L1.04605 23.9793V27.0516H0.315918V22.5759H1.11243L2.68649 26.0938L4.25106 22.5759H5.03809Z" fill="#4E4540"/>
<path d="M10.1304 27.0611V22.5854H10.87V27.0611H10.1304Z" fill="#4E4540"/>
<path d="M18.9016 22.5759H19.6318V27.061H18.9016L16.6923 23.7138V27.061H15.9526V22.5759H16.6923L18.9016 25.9137V22.5759Z" fill="#4E4540"/>
<path d="M27.2078 22.5759V23.1543H25.463V24.5103H27.0087V25.0792H25.463V26.4921H27.2078V27.0705H24.7329V22.5854H27.2078V22.5759Z" fill="#4E4540"/>
<path d="M32.9728 25.2405V27.0611H32.2427V22.5854H33.7883C34.2908 22.5854 34.6891 22.7087 34.9641 22.9647C35.2391 23.2208 35.3813 23.5337 35.3813 23.9224C35.3813 24.2259 35.2865 24.4914 35.1063 24.7379C34.9262 24.975 34.6417 25.1362 34.2624 25.212L35.4477 27.0706H34.5563L33.4374 25.25H32.9823L32.9728 25.2405ZM32.9728 23.1544V24.6715H33.7883C34.0633 24.6715 34.2719 24.6052 34.4141 24.4724C34.5469 24.3397 34.6227 24.15 34.6227 23.913C34.6227 23.6759 34.5563 23.4863 34.4141 23.3535C34.2719 23.2208 34.0633 23.1544 33.7883 23.1544H32.9728Z" fill="#4E4540"/>
<path d="M43.4598 27.061L43.1374 26.1413H41.2599L40.9375 27.061H40.1694L41.7719 22.5759H42.6253L44.2278 27.061H43.4503H43.4598ZM41.459 25.5723H42.9383L42.1986 23.4673L41.459 25.5723Z" fill="#4E4540"/>
<path d="M49.0552 22.5759H49.7853V26.4921H51.3025V27.0516H49.0552V22.5759Z" fill="#4E4540"/>
<path d="M67.1466 22.5759H67.9336L66.6061 27.0516H65.7717L64.8329 23.6569L63.8373 27.0516H63.0123L61.7417 22.5759H62.5192L63.4485 26.2266L64.4536 22.5759H65.2786L66.2173 26.2076L67.1561 22.5759H67.1466Z" fill="#4E4540"/>
<path d="M75.6902 27.061L75.3679 26.1413H73.4904L73.168 27.061H72.3999L74.0024 22.5759H74.8558L76.4583 27.061H75.6808H75.6902ZM73.6895 25.5723H75.1687L74.4291 23.4673L73.6895 25.5723Z" fill="#4E4540"/>
<path d="M81.0571 23.1544V22.5854H84.1863V23.1544H82.9915V27.0611H82.2519V23.1544H81.0571Z" fill="#4E4540"/>
<path d="M91.5261 22.5759V23.1543H89.7814V24.5103H91.327V25.0792H89.7814V26.4921H91.5261V27.0705H89.0513V22.5854H91.5261V22.5759Z" fill="#4E4540"/>
<path d="M97.2912 25.2405V27.0611H96.561V22.5854H98.1066C98.6092 22.5854 99.0075 22.7087 99.2825 22.9647C99.5574 23.2208 99.6997 23.5337 99.6997 23.9224C99.6997 24.2259 99.6049 24.4914 99.4247 24.7379C99.2445 24.9845 98.9601 25.1362 98.5808 25.212L99.766 27.0706H98.8747L97.7558 25.25H97.3007L97.2912 25.2405ZM97.2912 23.1544V24.6715H98.1066C98.3816 24.6715 98.5902 24.6052 98.7325 24.4724C98.8652 24.3397 98.9411 24.15 98.9411 23.913C98.9411 23.6759 98.8747 23.4863 98.7325 23.3535C98.5902 23.2208 98.3816 23.1544 98.1066 23.1544H97.2912Z" fill="#4E4540"/>
</svg>
