<svg width="120" height="121" viewBox="0 0 120 121" fill="none" xmlns="http://www.w3.org/2000/svg">
<path d="M60.6001 59.0673H43.5542C43.2706 59.0673 43.0073 58.9053 42.8756 58.6521C42.744 58.3989 42.7642 58.095 42.9364 57.8621L47.2004 51.8965C47.3422 51.6939 47.5751 51.5825 47.8182 51.5825H56.3361C56.5792 51.5825 56.8121 51.7041 56.9539 51.8965L61.2179 57.8621C61.38 58.095 61.4104 58.3989 61.2787 58.6521C61.147 58.9053 60.8837 59.0673 60.6001 59.0673ZM45.0329 57.5481H59.1214L55.9411 53.1018H48.2031L45.0228 57.5481H45.0329Z" fill="white"/>
<path d="M52.0712 74.7355C51.7977 74.7355 51.5344 74.5836 51.4027 74.3405L42.8848 58.6721C42.7532 58.4391 42.7633 58.1555 42.895 57.9226C43.0266 57.6896 43.2799 57.5479 43.5432 57.5479H60.5992C60.8625 57.5479 61.1158 57.6896 61.2474 57.9226C61.3892 58.1555 61.3892 58.4391 61.2575 58.6721L52.7397 74.3405C52.608 74.5836 52.3548 74.7355 52.0712 74.7355ZM44.8295 59.0671L52.0712 72.3858L59.3129 59.0671H44.8295Z" fill="white"/>
<path d="M52.0714 59.0672C51.8384 59.0672 51.6055 58.9558 51.4536 58.7532L47.1895 52.7877C46.9465 52.4433 47.0275 51.9673 47.3617 51.7242C47.7061 51.4811 48.1821 51.5622 48.4252 51.8964L52.6892 57.862C52.9323 58.2063 52.8513 58.6823 52.517 58.9254C52.3854 59.0166 52.2334 59.0672 52.0714 59.0672Z" fill="white"/>
<path d="M52.0715 59.0672C51.9195 59.0672 51.7676 59.0165 51.6258 58.9254C51.2815 58.6823 51.2004 58.2063 51.4536 57.8619L55.7176 51.8963C55.9607 51.552 56.4368 51.4811 56.7811 51.7242C57.1255 51.9672 57.2065 52.4433 56.9533 52.7876L52.6893 58.7532C52.5374 58.9659 52.3044 59.0672 52.0715 59.0672Z" fill="white"/>
<path d="M47.1712 65.7112C47.0092 65.7112 46.8573 65.6606 46.7155 65.5593C46.3812 65.3061 46.3103 64.8301 46.5534 64.4958L51.4656 57.8517C51.7188 57.5175 52.1949 57.4466 52.5291 57.6896C52.8633 57.9428 52.9342 58.4189 52.6911 58.7531L47.7789 65.3973C47.627 65.5998 47.4042 65.7011 47.1712 65.7011V65.7112Z" fill="white"/>
<path d="M56.9859 65.7108C56.7529 65.7108 56.52 65.6096 56.3782 65.407L51.466 58.7628C51.2128 58.4286 51.2837 57.9526 51.628 57.6994C51.9623 57.4462 52.4383 57.5171 52.6915 57.8614L57.6037 64.5056C57.8569 64.8398 57.786 65.3158 57.4417 65.5691C57.31 65.6703 57.1479 65.721 56.9859 65.721V65.7108Z" fill="white"/>
<path d="M52.0711 74.7355C51.6559 74.7355 51.3115 74.3912 51.3115 73.9759V58.3075C51.3115 57.8922 51.6559 57.5479 52.0711 57.5479C52.4864 57.5479 52.8308 57.8922 52.8308 58.3075V73.9759C52.8308 74.3912 52.4864 74.7355 52.0711 74.7355Z" fill="white"/>
<path d="M56.3351 53.1021H47.8172C47.402 53.1021 47.0576 52.7578 47.0576 52.3425V49.7092C47.0576 46.9442 49.3061 44.6855 52.0812 44.6855C54.8564 44.6855 57.1049 46.934 57.1049 49.7092V52.3425C57.1049 52.7578 56.7605 53.1021 56.3453 53.1021H56.3351ZM48.5667 51.5829H55.5755V49.7092C55.5755 47.7747 54.0056 46.2048 52.0711 46.2048C50.1366 46.2048 48.5667 47.7747 48.5667 49.7092V51.5829Z" fill="white"/>
<path d="M51.607 46.0522L52.0729 45.4546L51.5968 46.0522C50.4321 45.1305 47.6569 42.6187 47.2214 39.0637C46.9176 36.6734 47.7886 33.6248 49.2471 31.9739C50.0573 31.0623 51.0094 30.5762 52.0222 30.5762C53.8453 30.5762 55.8001 32.1967 55.8001 34.6072C55.8001 35.691 55.2227 36.4101 54.7062 37.0481C54.2504 37.6153 53.8453 38.1116 53.8149 38.851C53.7845 39.4587 54.0074 40.1069 54.4733 40.7551C54.7163 41.0995 54.6353 41.5755 54.2909 41.8084C53.9466 42.0515 53.4706 41.9705 53.2275 41.6261C52.5691 40.6943 52.2552 39.7321 52.2957 38.7801C52.3463 37.5343 52.9945 36.724 53.5212 36.086C53.9871 35.5086 54.2808 35.1238 54.2808 34.6072C54.2808 33.1285 53.0857 32.0954 52.0222 32.0954C51.455 32.0954 50.898 32.3891 50.3814 32.9766C49.2065 34.3034 48.4773 36.8962 48.7204 38.8712C49.0951 41.8591 51.5057 44.0468 52.5286 44.857L51.5968 46.0522H51.607Z" fill="white"/>
<path d="M76.4429 74.9179H59.397C59.1134 74.9179 58.8501 74.7559 58.7184 74.5026C58.5867 74.2494 58.607 73.9456 58.7792 73.7126L63.0432 67.7471C63.185 67.5445 63.4179 67.4331 63.661 67.4331H72.189C72.4321 67.4331 72.665 67.5546 72.8068 67.7471L77.0708 73.7126C77.2329 73.9456 77.2532 74.2494 77.1316 74.5026C76.9999 74.7559 76.7366 74.9179 76.453 74.9179H76.4429ZM60.8757 73.3987H74.9642L71.794 68.9523H64.056L60.8757 73.3987Z" fill="white"/>
<path d="M67.9257 90.5759C67.6522 90.5759 67.3889 90.424 67.2572 90.1809L58.7393 74.5124C58.6077 74.2795 58.6178 73.9959 58.7495 73.7629C58.8811 73.53 59.1343 73.3882 59.3977 73.3882H76.4436C76.7069 73.3882 76.9601 73.53 77.0918 73.7629C77.2336 73.9959 77.2336 74.2795 77.1019 74.5124L68.584 90.1809C68.4524 90.424 68.1992 90.5759 67.9156 90.5759H67.9257ZM60.684 74.9074L67.9257 88.2261L75.1674 74.9074H60.684Z" fill="white"/>
<path d="M67.9259 74.9178C67.6929 74.9178 67.46 74.8064 67.308 74.6038L63.044 68.6383C62.801 68.2939 62.882 67.8179 63.2162 67.5748C63.5606 67.3317 64.0366 67.4128 64.2797 67.747L68.5437 73.7125C68.7868 74.0569 68.7058 74.5329 68.3715 74.776C68.2399 74.8672 68.0879 74.9178 67.9259 74.9178Z" fill="white"/>
<path d="M67.9255 74.9177C67.7735 74.9177 67.6216 74.8671 67.4798 74.7759C67.1355 74.5329 67.0646 74.0568 67.3076 73.7125L71.5717 67.7469C71.8147 67.4026 72.2908 67.3317 72.6351 67.5747C72.9795 67.8178 73.0504 68.2938 72.8073 68.6382L68.5433 74.6038C68.3914 74.8165 68.1584 74.9177 67.9255 74.9177Z" fill="white"/>
<path d="M63.014 81.5521C62.852 81.5521 62.7 81.5014 62.5582 81.4001C62.224 81.1469 62.1531 80.6709 62.3962 80.3367L67.3084 73.6925C67.5616 73.3583 68.0376 73.2874 68.3719 73.5305C68.7061 73.7837 68.777 74.2597 68.5339 74.5939L63.6217 81.2381C63.4698 81.4406 63.247 81.5419 63.014 81.5419V81.5521Z" fill="white"/>
<path d="M72.8287 81.5512C72.5957 81.5512 72.3628 81.4499 72.221 81.2473L67.3088 74.6032C67.0555 74.269 67.1264 73.7929 67.4708 73.5397C67.805 73.2865 68.2811 73.3574 68.5343 73.7018L73.4465 80.3459C73.6997 80.6802 73.6288 81.1562 73.2844 81.4094C73.1528 81.5107 72.9907 81.5613 72.8287 81.5613V81.5512Z" fill="white"/>
<path d="M67.9247 90.5759C67.5094 90.5759 67.165 90.2315 67.165 89.8163V74.1478C67.165 73.7325 67.5094 73.3882 67.9247 73.3882C68.3399 73.3882 68.6843 73.7325 68.6843 74.1478V89.8163C68.6843 90.2315 68.3399 90.5759 67.9247 90.5759Z" fill="white"/>
<path d="M72.1763 68.9527H63.6483C63.233 68.9527 62.8887 68.6084 62.8887 68.1931V65.5598C62.8887 62.7947 65.1371 60.5361 67.9123 60.5361C70.6874 60.5361 72.9359 62.7846 72.9359 65.5598V68.1931C72.9359 68.6084 72.5916 68.9527 72.1763 68.9527ZM64.4079 67.4335H71.4167V65.5598C71.4167 63.6253 69.8468 62.0554 67.9123 62.0554C65.9778 62.0554 64.4079 63.6253 64.4079 65.5598V67.4335Z" fill="white"/>
<path d="M67.4481 61.8935L67.914 61.2959L67.438 61.8935C66.2733 60.9718 63.4981 58.46 63.0525 54.905C62.7486 52.5147 63.6196 49.4661 65.0781 47.8152C65.8884 46.9036 66.8404 46.4175 67.8533 46.4175C69.6764 46.4175 71.6311 48.038 71.6311 50.4485C71.6311 51.5323 71.0538 52.2514 70.5373 52.8895C70.0815 53.4566 69.6764 53.9529 69.646 54.6923C69.6156 55.3 69.8384 55.9482 70.3043 56.6065C70.5474 56.9509 70.4664 57.4269 70.122 57.6599C69.7776 57.9029 69.3016 57.8219 69.0585 57.4776C68.4002 56.5458 68.0862 55.5836 68.1267 54.6315C68.1774 53.3857 68.8256 52.5755 69.3522 51.9374C69.8182 51.3601 70.1119 50.9752 70.1119 50.4587C70.1119 48.9799 68.9167 47.9469 67.8533 47.9469C67.2861 47.9469 66.729 48.2406 66.2125 48.828C65.0376 50.1548 64.3084 52.7477 64.5514 54.7227C64.9262 57.7206 67.3367 59.9083 68.3597 60.7085L67.4279 61.9036L67.4481 61.8935Z" fill="white"/>
</svg>
