<svg width="101" height="37" viewBox="0 0 101 37" fill="none" xmlns="http://www.w3.org/2000/svg">
<path d="M10.1453 19.4741C10.1453 19.4741 9.06529 21.1941 5.60529 21.4541C1.72529 21.7441 0.225289 20.8341 0.225289 20.8341V16.9941H0.405289C0.725289 18.3141 2.46529 21.5041 5.60529 21.2641C7.74529 21.1041 8.34529 18.4041 5.94529 16.8041L2.86529 15.0941C0.0352888 13.5341 -0.664711 11.1541 1.02529 8.88409C1.02529 8.88409 2.12529 7.28409 5.40529 7.03409C8.82529 6.77409 10.1453 7.59409 10.1453 7.59409V10.9541H9.96529C9.56529 9.55409 8.60529 6.97409 5.40529 7.21409C3.24529 7.37409 2.62529 9.82409 5.22529 11.3241L8.30529 13.1341C10.9453 14.6741 11.6453 17.1841 10.1453 19.4741Z" fill="#4E4540"/>
<path d="M25.6554 7.56402V17.834C25.6554 18.154 25.5954 19.574 26.5354 19.504V19.684L21.3754 20.074V19.894C21.8954 19.854 21.8554 18.434 21.8554 18.114V13.394L17.0154 13.764V18.484C17.0154 18.804 16.9554 20.224 17.4954 20.184V20.364L12.3154 20.754V20.574C13.2954 20.504 13.2154 19.084 13.2154 18.764V8.50402C13.2154 8.30402 13.2754 6.78402 12.3154 6.85402V6.69402L17.4954 6.30402V6.46402C16.8954 6.51402 17.0154 8.02402 17.0154 8.22402V13.604L21.8554 13.244V7.85402C21.8554 7.65402 21.9354 6.13402 21.3754 6.17402V6.01402L26.5354 5.62402V5.78402C25.6354 5.85402 25.6554 7.37402 25.6554 7.57402V7.56402Z" fill="#4E4540"/>
<path d="M27.8752 15.0742V7.46418C27.8752 6.24418 27.9552 5.70418 27.0752 5.76418V5.58418L32.7952 5.15418V5.33418C31.9352 5.40418 31.9752 5.71418 31.9752 7.15418V14.9142C31.9752 17.2742 33.2152 18.1842 35.1152 18.0342C37.2552 17.8742 38.3352 16.3142 38.3352 14.4342V9.23418C38.3352 7.59418 37.8152 4.95418 35.9152 5.10418V4.92418L41.1552 4.53418L41.1752 4.71418C38.9352 4.88418 38.5152 7.59418 38.5152 9.23418V14.4342C38.5152 17.0742 36.7552 19.1242 33.2352 19.3942C30.5152 19.6042 27.8752 18.3642 27.8752 15.1042V15.0742Z" fill="#4E4540"/>
<path d="M56.1252 3.39404V7.89404H55.9652C55.8652 5.61404 52.9052 3.81404 51.2452 3.94404L51.0252 3.96404V15.594C51.0252 16.954 51.1252 17.664 51.9252 17.604V17.784L46.0252 18.234V18.054C46.8252 17.994 46.9252 17.264 46.9252 15.904V4.26404L46.7052 4.28404C45.0252 4.41404 42.0852 6.65404 41.9852 8.95404H41.8252V4.47404L56.1152 3.39404H56.1252Z" fill="#4E4540"/>
<path d="M71.2551 2.25415V6.75415H71.0951C70.9951 4.47415 68.0351 2.67415 66.3751 2.80415L66.1551 2.82415V14.4542C66.1551 15.8142 66.2551 16.5242 67.0551 16.4642V16.6442L61.1551 17.0942V16.9142C61.9551 16.8542 62.0551 16.1242 62.0551 14.7642V3.12415L61.8351 3.14415C60.1551 3.27415 57.2151 5.51415 57.1151 7.81415H56.9551V3.33415L71.2451 2.25415H71.2551Z" fill="#4E4540"/>
<path d="M83.9151 11.4542V15.3742L72.2451 16.2542V16.0742C73.0851 16.0142 73.4051 14.7842 73.4051 13.4242V4.85422C73.4051 3.61422 73.1251 2.27422 72.2451 2.34422V2.18422L83.6551 1.32422V5.41422H83.4751C83.4751 1.53422 78.0151 1.92422 78.0151 1.92422L77.2951 1.97422V8.67422L78.9151 8.55422C78.9151 8.55422 81.0551 8.45422 81.2751 6.01422H81.4551V10.8942H81.2751C81.0551 8.52422 78.9351 8.72422 78.9151 8.72422L77.2951 8.84422V15.6842L78.0151 15.6342C78.0151 15.6342 83.7351 15.4242 83.7351 11.4642H83.9151V11.4542Z" fill="#4E4540"/>
<path d="M100.615 13.9341V14.1141L96.6348 14.4141C95.2148 14.5241 94.7748 13.6541 94.2948 9.97414C94.0348 7.99414 91.6348 8.29414 91.6348 8.29414L90.6948 8.36414V12.6041C90.6948 14.5641 90.7748 14.6741 91.6148 14.6141V14.7941L85.6348 15.2441V15.0641C86.4948 14.9941 86.6748 14.9441 86.6748 12.9041V3.03414C86.6748 1.79414 86.5148 1.26414 85.6348 1.33414V1.17414L91.3148 0.744137C95.2948 0.444137 98.8648 0.654137 98.8648 3.99414C98.8648 6.99414 96.1048 7.82414 94.1848 7.96414C96.4848 7.79414 97.6448 8.20414 98.6248 11.7241C99.0248 13.2141 100.085 13.9341 100.605 13.9341H100.615ZM94.1848 4.34414C94.1848 0.524137 93.6648 0.744137 91.3248 0.924137L90.7048 0.974137V8.18414L91.3248 8.13414C93.9248 7.93414 94.1848 7.95414 94.1848 4.34414Z" fill="#4E4540"/>
<path d="M25.8456 34.6042C25.8456 34.6042 24.7656 36.3242 21.3056 36.5842C17.4256 36.8742 15.9256 35.9642 15.9256 35.9642V32.1242H16.1056C16.4256 33.4442 18.1656 36.6342 21.3056 36.3942C23.4456 36.2342 24.0456 33.5342 21.6456 31.9342L18.5656 30.2242C15.7256 28.6542 15.0256 26.2742 16.7256 24.0042C16.7256 24.0042 17.8256 22.4042 21.1056 22.1542C24.5256 21.8942 25.8456 22.7142 25.8456 22.7142V26.0742H25.6656C25.2656 24.6742 24.3056 22.0942 21.1056 22.3342C18.9456 22.4942 18.3256 24.9442 20.9256 26.4442L24.0056 28.2542C26.6456 29.7942 27.3456 32.3042 25.8456 34.5942V34.6042Z" fill="#4E4540"/>
<path d="M33.0551 32.7743C33.0551 35.3543 33.5551 35.2943 34.6951 35.2143V35.3943L28.1151 35.8943V35.7143C28.9551 35.6543 29.0351 35.2843 29.0351 33.9243V23.6343C29.0351 22.3943 28.8751 21.9243 27.9951 21.9943V21.8343L33.0551 21.4543C37.0351 21.1543 40.9651 21.1143 40.9651 24.8943C40.9651 28.6743 37.0251 29.1743 33.0551 29.4643V32.7843V32.7743ZM33.0551 29.2743C35.9951 29.0543 36.3351 29.0843 36.3351 25.2243C36.3351 21.3643 35.7751 21.4043 33.0551 21.6143V29.2743Z" fill="#4E4540"/>
<path d="M53.8048 30.034V33.954L42.1348 34.834V34.654C42.9748 34.594 43.2948 33.364 43.2948 32.004V23.424C43.2948 22.184 43.0148 20.844 42.1348 20.914V20.754L53.5448 19.894V23.994H53.3648C53.3648 20.114 47.9048 20.504 47.9048 20.504L47.1848 20.554V27.254L48.8048 27.134C48.8048 27.134 50.9448 27.034 51.1648 24.594H51.3448V29.474H51.1648C50.9448 27.104 48.8248 27.304 48.8048 27.304L47.1848 27.424V34.264L47.9048 34.214C47.9048 34.214 53.6248 34.004 53.6248 30.044H53.8048V30.034Z" fill="#4E4540"/>
<path d="M67.3555 29.014V32.934L55.6855 33.814V33.634C56.5255 33.574 56.8455 32.344 56.8455 30.984V22.404C56.8455 21.164 56.5655 19.824 55.6855 19.894V19.734L67.0956 18.874V22.974H66.9156C66.9156 19.094 61.4555 19.484 61.4555 19.484L60.7355 19.534V26.234L62.3555 26.114C62.3555 26.114 64.4955 26.014 64.7155 23.574H64.8955V28.454H64.7155C64.4955 26.084 62.3755 26.284 62.3555 26.284L60.7355 26.404V33.244L61.4555 33.194C61.4555 33.194 67.1755 32.984 67.1755 29.024H67.3555V29.014Z" fill="#4E4540"/>
<path d="M84.0256 24.7042C84.0256 30.5442 79.3255 32.0342 75.3555 32.3342L69.4355 32.7842V32.6042C70.2955 32.5342 70.6155 31.3142 70.6155 29.9542V21.3742C70.6155 20.1342 70.3155 18.7942 69.4355 18.8642V18.7042L75.3555 18.2542C79.3355 17.9542 84.0256 18.8442 84.0256 24.6942V24.7042ZM79.0055 25.0842C79.0055 18.6842 77.8056 18.2542 75.3456 18.4442L74.4655 18.5142V32.2242L75.3456 32.1542C77.7056 31.9742 79.0055 31.5942 79.0055 25.0842Z" fill="#4E4540"/>
</svg>
