<svg width="120" height="121" viewBox="0 0 120 121" fill="none" xmlns="http://www.w3.org/2000/svg">
<path d="M58.2647 78.8403C58.2057 78.8403 58.1348 78.8403 58.0758 78.8167C47.4619 76.5026 39.7051 56.1248 39.7051 48.1791C39.7051 40.7883 46.5174 34.3538 55.9153 32.878C56.3993 32.8072 56.848 33.1259 56.9306 33.61C57.0014 34.0941 56.6709 34.5427 56.1986 34.6253C47.6744 35.9595 41.4878 41.662 41.4878 48.1791C41.4878 55.2865 49.0203 75.0268 58.4654 77.0929C58.9377 77.1992 59.2447 77.6714 59.1384 78.1437C59.0439 78.5569 58.678 78.8403 58.2765 78.8403H58.2647Z" fill="white"/>
<path d="M61.7472 78.8412C61.3339 78.8412 60.968 78.5579 60.8853 78.1446C60.7791 77.6724 61.086 77.2001 61.5583 77.0939C71.0152 75.0396 78.5359 55.2875 78.5359 48.18C78.5359 41.0726 71.5229 35.2638 62.2194 34.4374C61.7354 34.3902 61.3694 33.9651 61.4166 33.4811C61.4638 32.997 61.8888 32.6428 62.3729 32.6782C72.5972 33.5991 80.295 40.2579 80.295 48.1918C80.295 56.1257 72.5382 76.5154 61.9243 78.8294C61.8652 78.8412 61.7944 78.853 61.7354 78.853L61.7472 78.8412Z" fill="white"/>
<path d="M59.9992 90.576C59.6805 90.576 59.3853 90.3989 59.2318 90.1274L55.7135 83.8582C55.5246 83.5158 55.5836 83.079 55.8552 82.7956L59.3735 79.2773C59.7159 78.9349 60.2826 78.9349 60.625 79.2773L64.1433 82.7956C64.4266 83.079 64.4857 83.504 64.2849 83.8582L60.7666 90.1274C60.6132 90.4107 60.318 90.576 59.9992 90.576ZM57.5789 83.5748L59.9992 87.8723L62.4195 83.5748L59.9992 81.1545L57.5789 83.5748Z" fill="white"/>
<path d="M60.0021 80.801C58.5381 80.801 57.3574 79.6085 57.3574 78.1563C57.3574 76.7042 58.5499 75.5117 60.0021 75.5117C61.4542 75.5117 62.6467 76.7042 62.6467 78.1563C62.6467 79.6085 61.4542 80.801 60.0021 80.801ZM60.0021 77.2827C59.518 77.2827 59.1284 77.6723 59.1284 78.1563C59.1284 78.6404 59.518 79.03 60.0021 79.03C60.4861 79.03 60.8757 78.6404 60.8757 78.1563C60.8757 77.6723 60.4861 77.2827 60.0021 77.2827Z" fill="white"/>
<path d="M58.0155 36.3377C56.4335 36.3377 55.1348 35.0508 55.1348 33.4569C55.1348 31.8631 56.4217 30.5762 58.0155 30.5762C59.6094 30.5762 60.8963 31.8631 60.8963 33.4569C60.8963 35.0508 59.6094 36.3377 58.0155 36.3377ZM58.0155 32.3589C57.4016 32.3589 56.9057 32.8548 56.9057 33.4687C56.9057 34.0827 57.4016 34.5785 58.0155 34.5785C58.6295 34.5785 59.1253 34.0827 59.1253 33.4687C59.1253 32.8548 58.6295 32.3589 58.0155 32.3589Z" fill="white"/>
</svg>
