<svg width="120" height="121" viewBox="0 0 120 121" fill="none" xmlns="http://www.w3.org/2000/svg">
<path d="M89.1043 79.0465C88.8767 79.0465 88.649 78.9627 88.4693 78.7829C80.8607 71.1743 70.7599 66.9926 60 66.9926C49.2401 66.9926 39.1393 71.1743 31.5307 78.7829C31.1832 79.1304 30.6081 79.1304 30.2606 78.7829C29.9131 78.4355 29.9131 77.8603 30.2606 77.5128C38.2047 69.5688 48.7609 65.1953 60 65.1953C71.2391 65.1953 81.7953 69.5688 89.7394 77.5128C90.0869 77.8603 90.0869 78.4355 89.7394 78.7829C89.5597 78.9627 89.332 79.0465 89.1043 79.0465Z" fill="white"/>
<path d="M60.0003 66.9925C58.4666 66.9925 56.9448 66.4054 55.7826 65.2431C54.6563 64.1168 54.0332 62.619 54.0332 61.0254C54.0332 59.4318 54.6563 57.9341 55.7826 56.8077C56.1301 56.4603 56.7052 56.4603 57.0527 56.8077C57.4002 57.1552 57.4002 57.7304 57.0527 58.0778C56.2619 58.8687 55.8305 59.9111 55.8305 61.0254C55.8305 62.1398 56.2619 63.1942 57.0527 63.973C58.6822 65.6026 61.3303 65.6026 62.9598 63.973C64.5894 62.3434 64.5894 59.6954 62.9598 58.0659C62.6123 57.7184 62.6123 57.1432 62.9598 56.7958C63.3073 56.4483 63.8824 56.4483 64.2299 56.7958C66.5544 59.1203 66.5544 62.9066 64.2299 65.2431C63.0677 66.4054 61.5339 66.9925 60.0122 66.9925H60.0003Z" fill="white"/>
<path d="M60.0005 61.5526C59.7728 61.5526 59.5452 61.4687 59.3655 61.2889L53.015 54.9385C52.7274 54.6509 52.6675 54.2196 52.8712 53.8601L59.2217 42.561C59.5452 41.9979 60.4678 41.9979 60.7913 42.561L67.1418 53.8601C67.3335 54.2076 67.2736 54.6509 66.998 54.9385L60.6475 61.2889C60.4678 61.4687 60.2401 61.5526 60.0125 61.5526H60.0005ZM54.7643 54.1477L60.0005 59.3838L65.2366 54.1477L60.0005 44.8376L54.7643 54.1477Z" fill="white"/>
<path d="M49.4078 68.2863C47.1911 68.2863 45.3818 66.477 45.3818 64.2603C45.3818 62.0437 47.1911 60.2344 49.4078 60.2344C51.6245 60.2344 53.4338 62.0437 53.4338 64.2603C53.4338 66.477 51.6245 68.2863 49.4078 68.2863ZM49.4078 62.0437C48.1856 62.0437 47.1791 63.0382 47.1791 64.2723C47.1791 65.5065 48.1736 66.501 49.4078 66.501C50.6419 66.501 51.6365 65.5065 51.6365 64.2723C51.6365 63.0382 50.6419 62.0437 49.4078 62.0437Z" fill="white"/>
<path d="M41.0808 71.2817C39.1517 71.2817 37.582 69.712 37.582 67.7829C37.582 65.8538 39.1517 64.2842 41.0808 64.2842C43.0099 64.2842 44.5795 65.8538 44.5795 67.7829C44.5795 69.712 43.0099 71.2817 41.0808 71.2817ZM41.0808 66.0815C40.1462 66.0815 39.3793 66.8483 39.3793 67.7829C39.3793 68.7175 40.1462 69.4844 41.0808 69.4844C42.0154 69.4844 42.7822 68.7175 42.7822 67.7829C42.7822 66.8483 42.0154 66.0815 41.0808 66.0815Z" fill="white"/>
<path d="M34.4058 75.3921C32.8002 75.3921 31.4941 74.0861 31.4941 72.4805C31.4941 70.8749 32.8002 69.5688 34.4058 69.5688C36.0114 69.5688 37.3174 70.8749 37.3174 72.4805C37.3174 74.0861 36.0114 75.3921 34.4058 75.3921ZM34.4058 71.3662C33.7947 71.3662 33.2914 71.8694 33.2914 72.4805C33.2914 73.0916 33.7947 73.5948 34.4058 73.5948C35.0169 73.5948 35.5201 73.0916 35.5201 72.4805C35.5201 71.8694 35.0169 71.3662 34.4058 71.3662Z" fill="white"/>
<path d="M70.5924 68.2863C68.3757 68.2863 66.5664 66.477 66.5664 64.2603C66.5664 62.0437 68.3757 60.2344 70.5924 60.2344C72.809 60.2344 74.6183 62.0437 74.6183 64.2603C74.6183 66.477 72.809 68.2863 70.5924 68.2863ZM70.5924 62.0437C69.3702 62.0437 68.3637 63.0382 68.3637 64.2723C68.3637 65.5065 69.3582 66.501 70.5924 66.501C71.8265 66.501 72.821 65.5065 72.821 64.2723C72.821 63.0382 71.8265 62.0437 70.5924 62.0437Z" fill="white"/>
<path d="M78.9206 71.2817C76.9915 71.2817 75.4219 69.712 75.4219 67.7829C75.4219 65.8538 76.9915 64.2842 78.9206 64.2842C80.8497 64.2842 82.4194 65.8538 82.4194 67.7829C82.4194 69.712 80.8497 71.2817 78.9206 71.2817ZM78.9206 66.0815C77.986 66.0815 77.2192 66.8483 77.2192 67.7829C77.2192 68.7175 77.986 69.4844 78.9206 69.4844C79.8552 69.4844 80.6221 68.7175 80.6221 67.7829C80.6221 66.8483 79.8552 66.0815 78.9206 66.0815Z" fill="white"/>
<path d="M85.5933 75.3921C83.9877 75.3921 82.6816 74.0861 82.6816 72.4805C82.6816 70.8749 83.9877 69.5688 85.5933 69.5688C87.1989 69.5688 88.5049 70.8749 88.5049 72.4805C88.5049 74.0861 87.1989 75.3921 85.5933 75.3921ZM85.5933 71.3662C84.9822 71.3662 84.4789 71.8694 84.4789 72.4805C84.4789 73.0916 84.9822 73.5948 85.5933 73.5948C86.2044 73.5948 86.7076 73.0916 86.7076 72.4805C86.7076 71.8694 86.2044 71.3662 85.5933 71.3662Z" fill="white"/>
<path d="M53.6477 55.202C53.3002 55.202 52.9767 54.9983 52.8329 54.6748C52.6292 54.2195 52.8329 53.6923 53.2882 53.4886L59.6387 50.6488C60.094 50.4451 60.6212 50.6488 60.8249 51.1042C61.0286 51.5595 60.8249 52.0867 60.3696 52.2904L54.0191 55.1301C53.8993 55.178 53.7795 55.214 53.6477 55.214V55.202Z" fill="white"/>
<path d="M66.3637 55.2023C66.2438 55.2023 66.112 55.1783 65.9922 55.1184L59.6417 52.2787C59.1864 52.075 58.9827 51.5478 59.1864 51.0924C59.3901 50.6371 59.9173 50.4334 60.3727 50.6371L66.7231 53.4769C67.1784 53.6806 67.3821 54.2078 67.1784 54.6631C67.0347 54.9986 66.6992 55.1903 66.3637 55.1903V55.2023Z" fill="white"/>
<path d="M60.0002 61.5528C59.509 61.5528 59.1016 61.1454 59.1016 60.6541V43.0046C59.1016 42.5133 59.509 42.106 60.0002 42.106C60.4915 42.106 60.8989 42.5133 60.8989 43.0046V60.6541C60.8989 61.1454 60.4915 61.5528 60.0002 61.5528Z" fill="white"/>
</svg>
