<svg width="120" height="121" viewBox="0 0 120 121" fill="none" xmlns="http://www.w3.org/2000/svg">
<path d="M60.0004 90.5765C48.7884 90.5765 39.668 81.4561 39.668 70.2441C39.668 59.032 48.7884 49.9116 60.0004 49.9116C71.2124 49.9116 80.3329 59.032 80.3329 70.2441C80.3329 81.4561 71.2124 90.5765 60.0004 90.5765ZM60.0004 51.7357C49.7977 51.7357 41.4921 60.0414 41.4921 70.2441C41.4921 80.4468 49.7977 88.7524 60.0004 88.7524C70.2031 88.7524 78.5088 80.4468 78.5088 70.2441C78.5088 60.0414 70.2031 51.7357 60.0004 51.7357Z" fill="white"/>
<path d="M60 86.8671C50.8309 86.8671 43.3887 79.4127 43.3887 70.2436C43.3887 61.0746 50.8431 53.6323 60 53.6323C69.1569 53.6323 76.6235 61.0867 76.6235 70.2436C76.6235 79.4005 69.169 86.8671 60 86.8671ZM60 55.4564C51.8402 55.4564 45.2128 62.0961 45.2128 70.2436C45.2128 78.3912 51.8524 85.043 60 85.043C68.1476 85.043 74.7994 78.4034 74.7994 70.2436C74.7994 62.0839 68.1597 55.4564 60 55.4564Z" fill="white"/>
<path d="M55.7571 52.2101C55.5869 52.2101 55.4166 52.1614 55.2586 52.0641C52.8143 50.4589 51.3672 47.7593 51.3672 44.8408C51.3672 44.3422 51.7806 43.9287 52.2792 43.9287C52.7778 43.9287 53.1913 44.3422 53.1913 44.8408C53.1913 47.1391 54.3465 49.2794 56.2679 50.5441C56.6935 50.8237 56.803 51.3831 56.5233 51.8088C56.353 52.0763 56.0612 52.2222 55.7571 52.2222V52.2101Z" fill="white"/>
<path d="M64.2445 52.2095C63.9526 52.2095 63.6608 52.0636 63.4783 51.7961C63.1987 51.3704 63.3203 50.8111 63.7337 50.5314C65.6673 49.2667 66.8103 47.1264 66.8103 44.8281C66.8103 44.3295 67.2238 43.916 67.7224 43.916C68.221 43.916 68.6344 44.3295 68.6344 44.8281C68.6344 47.7466 67.1752 50.4462 64.7309 52.0514C64.5728 52.1487 64.4026 52.1974 64.2323 52.1974L64.2445 52.2095Z" fill="white"/>
<path d="M52.2672 45.7398C51.7686 45.7398 51.3552 45.3263 51.3552 44.8277C51.3552 44.3292 50.9295 43.8671 50.3945 43.8671C49.8594 43.8671 49.4824 43.4536 49.4824 42.955C49.4824 42.4564 49.8959 42.043 50.3945 42.043C51.9267 42.043 53.1792 43.2955 53.1792 44.8277C53.1792 45.3263 52.7658 45.7398 52.2672 45.7398Z" fill="white"/>
<path d="M67.7343 45.7398C67.2357 45.7398 66.8223 45.3263 66.8223 44.8277C66.8223 43.2955 68.0748 42.043 69.607 42.043C70.1056 42.043 70.5191 42.4564 70.5191 42.955C70.5191 43.4536 70.1056 43.8671 69.607 43.8671C69.1085 43.8671 68.6463 44.2927 68.6463 44.8277C68.6463 45.3628 68.2329 45.7398 67.7343 45.7398Z" fill="white"/>
<path d="M63.0886 44.6094C62.59 44.6094 62.1766 44.196 62.1766 43.6974C62.1766 42.9678 61.0335 41.5328 59.9998 40.487C58.9662 41.5328 57.8231 42.9678 57.8231 43.6974C57.8231 44.196 57.4096 44.6094 56.9111 44.6094C56.4125 44.6094 55.999 44.196 55.999 43.6974C55.999 41.6909 58.8203 39.0521 59.3797 38.5413C59.7323 38.2252 60.2552 38.2252 60.5957 38.5413C61.1551 39.0521 63.9763 41.6909 63.9763 43.6974C63.9763 44.196 63.5629 44.6094 63.0643 44.6094H63.0886Z" fill="white"/>
<path d="M56.9 44.6092C56.669 44.6092 56.4379 44.5241 56.2677 44.3417L56.2433 44.3174C55.8907 43.9647 55.2462 43.308 54.1639 43.0527C52.6925 42.7 51.4399 43.4175 50.9656 43.6729L50.8197 43.758C50.3698 43.989 49.8226 43.8309 49.5915 43.381C49.3604 42.9311 49.5307 42.3838 49.9685 42.1528C50.6495 41.7637 52.4128 40.7665 54.5895 41.2772C56.1825 41.6542 57.1311 42.6271 57.5445 43.0405C57.8972 43.3932 57.9093 43.989 57.5445 44.3417C57.3621 44.5241 57.1311 44.6092 56.9 44.6092Z" fill="white"/>
<path d="M63.7455 44.33L62.4443 43.0532C62.8578 42.6397 63.8063 41.6669 65.3993 41.2899C67.5761 40.7792 69.3272 41.7763 69.9109 42.1047L70.0204 42.1655C70.4703 42.3965 70.6405 42.9559 70.3973 43.3937C70.1663 43.8436 69.6069 44.0139 69.1691 43.7707L69.0232 43.6855C68.5489 43.418 67.2964 42.7127 65.825 43.0653C64.7427 43.3207 64.0982 43.9774 63.7455 44.33Z" fill="white"/>
<path d="M67.1895 42.9921C67.08 42.9921 66.9584 42.9678 66.849 42.9313C66.3869 42.7489 66.1558 42.2138 66.3382 41.7517C66.6544 40.9491 66.8247 40.0979 66.8247 39.2345C66.8247 35.4769 63.7602 32.4124 60.0026 32.4124C56.245 32.4124 53.1805 35.4769 53.1805 39.2345C53.1805 40.1101 53.3386 40.9491 53.6548 41.7517C53.8372 42.2138 53.6183 42.7489 53.144 42.9313C52.6819 43.1137 52.1469 42.8948 51.9645 42.4206C51.5632 41.3991 51.3564 40.3289 51.3564 39.2223C51.3564 34.4554 55.2356 30.5762 60.0026 30.5762C64.7695 30.5762 68.6487 34.4554 68.6487 39.2223C68.6487 40.3289 68.442 41.3991 68.0407 42.4206C67.8948 42.7732 67.5543 42.9921 67.1895 42.9921Z" fill="white"/>
<path d="M55.6579 38.4563C55.5485 38.4563 55.4512 38.4441 55.3418 38.3955C54.8675 38.2253 54.6243 37.7024 54.7945 37.2281C55.3539 35.7202 56.5335 34.5528 58.0536 34.0177C58.5278 33.8475 59.0507 34.1028 59.2088 34.5771C59.3791 35.0514 59.1237 35.5743 58.6494 35.7323C57.6644 36.0728 56.8618 36.8633 56.497 37.8361C56.3632 38.2009 56.0106 38.432 55.6458 38.432L55.6579 38.4563Z" fill="white"/>
</svg>
