<svg width="120" height="121" viewBox="0 0 120 121" fill="none" xmlns="http://www.w3.org/2000/svg">
<path d="M78.539 73.8133C78.3198 73.8133 78.0877 73.7359 77.9071 73.5812C77.5074 73.233 77.4558 72.6141 77.8169 72.2143C87.1915 61.4083 90.699 49.6996 85.9665 44.9672C85.5925 44.5932 85.5925 43.9742 85.9665 43.6003C86.3405 43.2263 86.9594 43.2263 87.3334 43.6003C92.8782 49.1451 89.4997 61.7178 79.274 73.478C79.0806 73.6972 78.8098 73.8133 78.539 73.8133Z" fill="white"/>
<path d="M50.3105 90.5761C47.3188 90.5761 44.8043 89.7121 43.0119 87.9197C42.638 87.5457 42.638 86.9268 43.0119 86.5528C43.3859 86.1789 44.0048 86.1789 44.3788 86.5528C49.1112 91.2853 60.8199 87.7779 71.6259 78.4032C72.0257 78.055 72.6446 78.0937 72.9928 78.5064C73.341 78.9061 73.3023 79.5251 72.9025 79.8732C64.9334 86.7978 56.5903 90.5761 50.3234 90.5761H50.3105Z" fill="white"/>
<path d="M42.123 76.3133C42.0328 76.3133 41.9425 76.3133 41.8651 76.2747C41.3493 76.1328 41.0527 75.5912 41.1946 75.0883C43.0257 68.5506 47.7453 61.123 54.1412 54.7271C60.5371 48.3312 67.9517 43.6116 74.5024 41.7805C75.0182 41.6387 75.5469 41.9353 75.6887 42.4511C75.8306 42.9669 75.534 43.4956 75.0182 43.6374C68.7899 45.3911 61.6719 49.9302 55.508 56.094C49.3442 62.2578 44.8052 69.3758 43.0515 75.6041C42.9354 76.0297 42.5486 76.3133 42.123 76.3133Z" fill="white"/>
<path d="M43.6963 88.2035C43.4513 88.2035 43.2063 88.1132 43.0129 87.9198L32.6711 77.578C32.2971 77.2041 32.2971 76.5851 32.6711 76.2111C33.045 75.8372 33.664 75.8372 34.038 76.2111L44.3798 86.5529C44.7537 86.9269 44.7537 87.5458 44.3798 87.9198C44.1863 88.1132 43.9413 88.2035 43.6963 88.2035Z" fill="white"/>
<path d="M86.6504 45.2509C86.4054 45.2509 86.1604 45.1606 85.967 44.9672L75.6252 34.6254C75.2512 34.2514 75.2512 33.6324 75.6252 33.2585C75.9991 32.8845 76.6181 32.8845 76.9921 33.2585L87.3339 43.6003C87.7078 43.9742 87.7078 44.5932 87.3339 44.9672C87.1404 45.1606 86.8954 45.2509 86.6504 45.2509Z" fill="white"/>
<path d="M70.3358 80.3244C67.8213 80.3244 65.4744 79.3444 63.6949 77.5778C61.9154 75.7983 60.9482 73.4385 60.9482 70.9369C60.9482 68.4352 61.9283 66.0626 63.6949 64.296C65.4744 62.5164 67.8342 61.5493 70.3358 61.5493C72.8374 61.5493 75.1972 62.5293 76.9767 64.296C78.7562 66.0626 79.7234 68.4352 79.7234 70.9369C79.7234 73.4385 78.7433 75.7983 76.9767 77.5778C75.1972 79.3573 72.8503 80.3244 70.3358 80.3244ZM70.3358 63.4707C68.3371 63.4707 66.4673 64.2444 65.0618 65.6499C63.6562 67.0555 62.8825 68.9253 62.8825 70.924C62.8825 72.9227 63.6562 74.7925 65.0618 76.198C66.4673 77.6036 68.3371 78.3773 70.3358 78.3773C72.3345 78.3773 74.2043 77.6036 75.6099 76.198C77.0154 74.7925 77.7891 72.9098 77.7891 70.924C77.7891 68.9382 77.0154 67.0555 75.6099 65.6499C74.2043 64.2444 72.3345 63.4707 70.3358 63.4707Z" fill="white"/>
<path d="M66.7795 75.4632C66.5345 75.4632 66.2766 75.3729 66.0961 75.1795L65.9671 75.0376C65.5932 74.6508 65.619 74.0447 65.9929 73.6708C66.3798 73.2968 66.9858 73.3226 67.3598 73.7095L67.4758 73.8255C67.8498 74.2124 67.8498 74.8184 67.4758 75.1924C67.2824 75.3729 67.0374 75.4761 66.7924 75.4761L66.7795 75.4632Z" fill="white"/>
<path d="M65.4238 72.9994C64.9854 72.9994 64.5856 72.6899 64.4825 72.2386C64.0312 70.2141 64.6372 68.138 66.0944 66.6809C66.4683 66.3069 67.0873 66.3069 67.4612 66.6809C67.8352 67.0548 67.8352 67.6738 67.4612 68.0477C66.4683 69.0407 66.0557 70.4462 66.3652 71.826C66.4812 72.3418 66.1588 72.8705 65.6301 72.9865C65.5528 72.9994 65.4883 73.0123 65.4238 73.0123V72.9994Z" fill="white"/>
<path d="M39.9948 80.2469C37.0032 80.2469 34.4758 79.3829 32.6705 77.5776C29.6273 74.5344 29.1888 69.3506 31.4197 62.9676C33.5731 56.8166 37.9703 50.2273 43.8118 44.3859C56.2425 31.9551 70.8139 27.0679 77.0035 33.2446C82.6386 38.8797 79.1183 51.6071 68.6217 63.4963C68.2736 63.896 67.6546 63.9347 67.2549 63.5865C66.8551 63.2383 66.8164 62.6194 67.1646 62.2196C76.7972 51.2976 80.4336 39.4213 75.6237 34.6114C70.3884 29.3761 56.4489 34.4825 45.1786 45.7527C33.9084 57.023 28.802 70.9753 34.0373 76.2107C38.8472 81.0206 50.7235 77.3842 61.6455 67.7516C62.0453 67.4034 62.6514 67.4421 63.0124 67.8419C63.3606 68.2416 63.3219 68.8477 62.9222 69.2087C54.837 76.3397 46.365 80.2598 39.9948 80.2598V80.2469Z" fill="white"/>
<path d="M39.9814 76.5203C37.9826 76.5203 36.3708 75.9916 35.3134 74.9342C33.2115 72.8324 33.1986 68.6028 35.2618 63.3158C37.3766 57.9257 41.3482 52.1488 46.4418 47.0424C51.5353 41.9359 57.3252 37.9643 62.7153 35.8624C68.0022 33.7992 72.2318 33.8121 74.3337 35.914C78.7953 40.3756 73.5857 53.3996 63.1924 63.793C58.0859 68.8994 52.309 72.871 46.9318 74.9729C44.3141 76.0045 41.9543 76.5074 39.9814 76.5074V76.5203ZM69.6915 36.2621C67.9764 36.2621 65.8101 36.7263 63.4245 37.6677C58.2794 39.6793 52.7345 43.4962 47.8215 48.4221C42.9085 53.348 39.0787 58.88 37.0671 64.0251C35.3392 68.4223 35.1973 72.0845 36.6802 73.5674C38.1632 75.0503 41.8254 74.9085 46.2226 73.1805C51.3677 71.1689 56.9125 67.352 61.8255 62.4261C72.9023 51.3493 75.8166 40.1306 72.9668 37.2808C72.2834 36.5974 71.1486 36.2621 69.6915 36.2621Z" fill="white"/>
</svg>
