<svg width="120" height="121" viewBox="0 0 120 121" fill="none" xmlns="http://www.w3.org/2000/svg">
<path d="M60.0006 83.3528C59.727 83.3528 59.4671 83.2434 59.2756 83.0518L37.5246 61.3008C37.3331 61.1093 37.2236 60.8494 37.2236 60.5758C37.2236 60.3022 37.3331 60.0423 37.5246 59.8508L59.2756 38.0998C59.4671 37.9083 59.727 37.7988 60.0006 37.7988C60.2742 37.7988 60.5341 37.9083 60.7256 38.0998L82.4766 59.8508C82.8733 60.2475 82.8733 60.9041 82.4766 61.3008L60.7256 83.0518C60.5341 83.2434 60.2742 83.3528 60.0006 83.3528ZM39.6997 60.5758L60.0006 80.8767L80.3015 60.5758L60.0006 40.2749L39.6997 60.5758Z" fill="white"/>
<path d="M60.0006 76.6785C58.7421 76.6785 57.5656 76.186 56.6764 75.2968L45.2811 63.9015C43.448 62.0684 43.448 59.0725 45.2811 57.2394L56.6764 45.844C58.4548 44.0657 61.5601 44.0657 63.3385 45.844L74.7338 57.2394C76.5669 59.0725 76.5669 62.0684 74.7338 63.9015L63.3385 75.2968C62.4493 76.186 61.2728 76.6785 60.0143 76.6785H60.0006ZM60.0006 46.528C59.2893 46.528 58.619 46.8016 58.1265 47.3078L46.7311 58.7031C46.225 59.2093 45.9514 59.8659 45.9514 60.5773C45.9514 61.2886 46.225 61.9589 46.7311 62.4514L58.1265 73.8467C59.1251 74.8454 60.8761 74.8454 61.8884 73.8467L73.2838 62.4514C73.7899 61.9452 74.0635 61.2886 74.0635 60.5773C74.0635 59.8659 73.7899 59.1956 73.2838 58.7031L61.8884 47.3078C61.3823 46.8016 60.712 46.528 60.0143 46.528H60.0006Z" fill="white"/>
<path d="M59.9988 67.7036C59.7389 67.7036 59.479 67.6079 59.2738 67.4027L53.1725 61.3015C52.7758 60.9047 52.7758 60.2481 53.1725 59.8514L59.2738 53.7502C59.6568 53.3671 60.3408 53.3671 60.7238 53.7502L66.825 59.8514C67.2218 60.2481 67.2218 60.9047 66.825 61.3015L60.7238 67.4027C60.5186 67.6079 60.2587 67.7036 59.9988 67.7036ZM55.3477 60.5764L59.9988 65.2276L64.6499 60.5764L59.9988 55.9253L55.3477 60.5764Z" fill="white"/>
<path d="M53.8983 61.6028H48.5631C48.0022 61.6028 47.5371 61.1376 47.5371 60.5768C47.5371 60.0159 48.0022 59.5508 48.5631 59.5508H53.8983C54.4591 59.5508 54.9243 60.0159 54.9243 60.5768C54.9243 61.1376 54.4591 61.6028 53.8983 61.6028Z" fill="white"/>
<path d="M71.4354 61.6028H66.1002C65.5393 61.6028 65.0742 61.1376 65.0742 60.5768C65.0742 60.0159 65.5393 59.5508 66.1002 59.5508H71.4354C71.9962 59.5508 72.4614 60.0159 72.4614 60.5768C72.4614 61.1376 71.9962 61.6028 71.4354 61.6028Z" fill="white"/>
<path d="M59.9996 73.039C59.4387 73.039 58.9736 72.5739 58.9736 72.013V66.6778C58.9736 66.117 59.4387 65.6519 59.9996 65.6519C60.5605 65.6519 61.0256 66.117 61.0256 66.6778V72.013C61.0256 72.5739 60.5605 73.039 59.9996 73.039Z" fill="white"/>
<path d="M59.9996 55.5009C59.4387 55.5009 58.9736 55.0358 58.9736 54.4749V49.1398C58.9736 48.5789 59.4387 48.1138 59.9996 48.1138C60.5605 48.1138 61.0256 48.5789 61.0256 49.1398V54.4749C61.0256 55.0358 60.5605 55.5009 59.9996 55.5009Z" fill="white"/>
<path d="M44.2955 90.5757C42.9959 90.5757 41.71 90.0832 40.725 89.0983L31.4774 79.8507C29.5075 77.8808 29.5075 74.6797 31.4774 72.7098L40.9302 63.257C41.3269 62.8603 41.9836 62.8603 42.3803 63.257L57.3187 78.1954C57.7154 78.5921 57.7154 79.2488 57.3187 79.6455L47.8659 89.0983C46.881 90.0832 45.5814 90.5757 44.2955 90.5757ZM41.6553 65.4321L32.9275 74.1599C31.7647 75.3227 31.7647 77.2242 32.9275 78.4006L42.1751 87.6482C43.3379 88.811 45.2394 88.811 46.4159 87.6482L55.1436 78.9205L41.6553 65.4321Z" fill="white"/>
<path d="M78.3443 58.1963C78.0844 58.1963 77.8245 58.1006 77.6193 57.8954L62.6808 42.9569C62.4893 42.7654 62.3799 42.5055 62.3799 42.2319C62.3799 41.9583 62.4893 41.6984 62.6808 41.5069L72.1336 32.0541C74.1035 30.0842 77.3046 30.0842 79.2745 32.0541L88.5221 41.3017C90.492 43.2716 90.492 46.4727 88.5221 48.4426L79.0693 57.8954C78.8641 58.1006 78.6042 58.1963 78.3443 58.1963ZM64.8559 42.2319L78.3443 55.7203L87.0721 46.9925C88.2348 45.8297 88.2348 43.9282 87.0721 42.7517L77.8244 33.5042C76.648 32.3277 74.7465 32.3414 73.5837 33.5042L64.8559 42.2319Z" fill="white"/>
<path d="M41.012 82.601C40.7521 82.601 40.4922 82.5053 40.287 82.3001L39.9177 81.9307C39.5209 81.534 39.5209 80.8774 39.9177 80.4806C40.3144 80.0839 40.971 80.0839 41.3677 80.4806L41.7371 80.85C42.1338 81.2467 42.1338 81.9034 41.7371 82.3001C41.5319 82.5053 41.2719 82.601 41.012 82.601Z" fill="white"/>
<path d="M37.7148 79.3042C37.4549 79.3042 37.195 79.2084 36.9898 79.0032L35.8954 77.9088C35.0609 77.0743 35.0609 75.72 35.8954 74.8992L41.9693 68.8254C42.366 68.4287 43.0226 68.4287 43.4193 68.8254C43.816 69.2221 43.816 69.8787 43.4193 70.2754L37.3454 76.3493L38.4398 77.5531C38.8366 77.9498 38.8366 78.6065 38.4398 79.0032C38.2346 79.2084 37.9747 79.3042 37.7148 79.3042Z" fill="white"/>
</svg>
