<svg width="101" height="26" viewBox="0 0 101 26" fill="none" xmlns="http://www.w3.org/2000/svg">
<g clip-path="url(#clip0_143_3131)">
<path d="M10.4909 13.3732C10.4909 13.3732 9.37056 15.0653 5.79955 15.0653C1.78508 15.0653 0.232973 14.015 0.232973 14.015V10.0472H0.419693C0.746452 11.4476 2.54363 14.8902 5.79955 14.8902C8.01685 14.8902 8.63535 12.1361 6.14965 10.304L2.96375 8.29671C0.022914 6.44119 -0.700624 3.92048 1.06154 1.71485C1.06154 1.71485 2.19353 0.139404 5.58949 0.139404C8.98545 0.139404 10.4909 1.08467 10.4909 1.08467V4.56232H10.3042C9.89571 3.08024 8.90376 0.326124 5.58949 0.326124C3.36053 0.326124 2.71868 2.81183 5.40277 4.56232L8.58867 6.67459C11.3194 8.47176 12.043 11.1208 10.4909 13.3732Z" fill="#4E4540"/>
<path d="M13.3852 10.2106V2.33341C13.3852 1.07305 13.4669 0.512891 12.5566 0.512891V0.326172H18.4733V0.512891C17.5864 0.512891 17.6214 0.839651 17.6214 2.33341V10.3507C17.6214 12.7897 18.9051 13.8283 20.8657 13.8283C23.083 13.8283 24.1916 12.2996 24.1916 10.3507V4.98249C24.1916 3.29034 23.6548 0.512891 21.6942 0.512891V0.326172H27.1091L27.1324 0.512891C24.8218 0.512891 24.3783 3.27868 24.3783 4.98249V10.3623C24.3783 13.0931 22.5578 15.077 18.9168 15.077C16.1043 15.077 13.3735 13.5833 13.3735 10.2223L13.3852 10.2106Z" fill="#4E4540"/>
<path d="M43.272 0.326172H48.3134V0.512891C47.2981 0.512891 47.3448 0.781301 47.3448 2.04166V12.9531C47.3448 14.3535 47.5082 14.6919 48.5235 14.6919V14.8786H42.2217V14.6919C43.1903 14.6919 43.272 14.3651 43.272 12.9531V0.886331L37.9155 15.0653H37.7288L31.0302 2.62516V9.40541C31.0302 12.0778 31.7887 14.7036 34.1928 14.7036V14.8903H27.7393V14.7036C29.9566 14.7036 30.8435 12.1245 30.8435 9.40541V2.31007C30.0382 0.886331 29.3731 0.547901 28.8012 0.512891V0.326172H34.6946L39.701 9.8372L43.272 0.326172Z" fill="#4E4540"/>
<path d="M64.5464 0.326172H69.5878V0.512891C68.5725 0.512891 68.6192 0.781301 68.6192 2.04166V12.9531C68.6192 14.3535 68.7826 14.6919 69.7979 14.6919V14.8786H63.4961V14.6919C64.4647 14.6919 64.5464 14.3651 64.5464 12.9531V0.886331L59.1899 15.0653H59.0032L52.3046 2.61349V9.40541C52.3046 12.0778 53.0632 14.7036 55.4672 14.7036V14.8903H49.0137V14.7036C51.231 14.7036 52.1179 12.1245 52.1179 9.40541V2.31007C51.3127 0.886331 50.6475 0.547901 50.0756 0.512891V0.326172H55.969L60.9754 9.8372L64.5464 0.326172Z" fill="#4E4540"/>
<path d="M82.7278 10.8291V14.8786H70.6494V14.6919C71.513 14.6919 71.8514 13.4549 71.8514 12.0428V3.17365C71.8514 1.88995 71.5597 0.489552 70.6494 0.489552V0.326172H82.4594V4.56237H82.2727C82.2727 0.536231 76.6244 0.512891 76.6244 0.512891H75.8776V7.43319H77.558C77.558 7.43319 79.7753 7.49154 79.9971 4.99416H80.1838V10.0589H79.9971C79.7637 7.57323 77.5814 7.6199 77.558 7.6199H75.8776V14.6919H76.6244C76.6244 14.6919 82.5411 14.9136 82.5411 10.8291H82.7278Z" fill="#4E4540"/>
<path d="M100.116 14.6919V14.8786H95.9964C94.526 14.8786 94.0709 13.945 93.5807 10.1056C93.3123 8.04002 90.8266 8.15672 90.8266 8.15672H89.858V12.5446C89.858 14.5752 89.9397 14.6919 90.815 14.6919V14.8786H84.6299V14.6919C85.5168 14.6919 85.7035 14.6452 85.7035 12.5446V2.33341C85.7035 1.04971 85.5401 0.489552 84.6299 0.489552V0.326172H90.4999C94.6194 0.326172 98.3188 0.827981 98.3188 4.27062C98.3188 7.37484 95.4713 8.01668 93.4757 8.01668C95.8564 8.01668 97.0584 8.53016 98.062 12.2529C98.4705 13.8283 99.5674 14.6569 100.104 14.6919H100.116ZM93.4524 4.27062C93.4524 0.326172 92.9156 0.512891 90.4999 0.512891H89.858V7.98167H90.4999C93.184 7.98167 93.4524 8.02835 93.4524 4.28229V4.27062Z" fill="#4E4540"/>
<path d="M23.0009 21.7522H23.8178V25.1131H23.0009V23.7244H21.7056V25.1131H20.8887V21.7522H21.7056V23.0942H23.0009V21.7522Z" fill="#4E4540"/>
<path d="M29.0689 25.1131L28.8821 24.5529H27.6801L27.4934 25.1131H26.6182L27.7852 21.7405H28.7771L29.9441 25.1131H29.0689ZM27.8785 23.9228H28.6721L28.2753 22.7208L27.8785 23.9228Z" fill="#4E4540"/>
<path d="M32.7451 25.1131V21.7522H33.562V25.1131H32.7451Z" fill="#4E4540"/>
<path d="M37.5064 23.8061V25.1131H36.6895V21.7522H38.0198C38.4049 21.7522 38.7084 21.8572 38.9301 22.0556C39.1518 22.254 39.2568 22.4991 39.2568 22.7792C39.2568 22.9775 39.1985 23.1643 39.0818 23.351C38.9651 23.5377 38.7667 23.6661 38.4983 23.7478L39.3269 25.1131H38.3699L37.6114 23.8061H37.518H37.5064ZM37.5064 22.3707V23.1759H38.0198C38.1482 23.1759 38.2416 23.1409 38.3116 23.0592C38.3816 22.9892 38.4166 22.8959 38.4166 22.7675C38.4166 22.6391 38.3816 22.5458 38.3116 22.4757C38.2416 22.394 38.1365 22.359 38.0198 22.359H37.5064V22.3707Z" fill="#4E4540"/>
<path d="M47.2978 21.7522C47.8346 21.7522 48.2781 21.9039 48.6165 22.219C48.9666 22.5341 49.13 22.9309 49.13 23.4327C49.13 23.9345 48.9549 24.3313 48.6165 24.6463C48.2664 24.9614 47.8346 25.1131 47.2978 25.1131H46.1191V21.7522H47.2978V21.7522ZM46.936 24.4946H47.2978C47.6129 24.4946 47.858 24.4013 48.033 24.2029C48.2081 24.0162 48.3014 23.7478 48.3014 23.4327C48.3014 23.1176 48.2081 22.8492 48.033 22.6625C47.858 22.4757 47.6129 22.3707 47.2978 22.3707H46.936V24.483V24.4946Z" fill="#4E4540"/>
<path d="M54.0901 21.7407V22.3592H52.8764V23.0827H53.9501V23.7012H52.8764V24.4831H54.0901V25.1016H52.0479V21.729H54.0901V21.7407Z" fill="#4E4540"/>
<path d="M58.326 22.3473C58.221 22.3473 58.1393 22.3706 58.0693 22.429C57.9993 22.4873 57.9759 22.5573 57.9759 22.6624C57.9759 22.7674 58.0109 22.8491 58.0693 22.9074C58.1276 22.9658 58.2093 23.0125 58.3027 23.0475C58.3961 23.0825 58.5128 23.1175 58.6295 23.1408C58.7462 23.1758 58.8629 23.2108 58.9912 23.2575C59.1079 23.3042 59.213 23.3509 59.318 23.4209C59.4113 23.4793 59.493 23.5726 59.5514 23.6893C59.6097 23.806 59.6447 23.9461 59.6447 24.1094C59.6447 24.3895 59.528 24.6346 59.2946 24.8446C59.0612 25.043 58.7578 25.1481 58.3844 25.1481C58.0109 25.1481 57.6959 25.0547 57.4741 24.8797C57.2407 24.6929 57.124 24.4362 57.124 24.0978H57.9993C58.0226 24.3662 58.1627 24.5062 58.4077 24.5062C58.5244 24.5062 58.6178 24.4712 58.6878 24.4129C58.7578 24.3545 58.7928 24.2728 58.7928 24.1795C58.7928 24.0861 58.7578 24.0044 58.6995 23.9461C58.6411 23.8877 58.5594 23.841 58.4661 23.806C58.3727 23.771 58.256 23.736 58.1393 23.7127C58.0226 23.6776 57.9059 23.6426 57.7775 23.596C57.6608 23.5493 57.5558 23.5026 57.4508 23.4326C57.3574 23.3742 57.2757 23.2809 57.2174 23.1642C57.159 23.0475 57.124 22.9074 57.124 22.7557C57.124 22.4406 57.2407 22.1956 57.4741 22.0088C57.7075 21.8221 57.9993 21.7288 58.3727 21.7288C58.7462 21.7288 59.0262 21.8104 59.248 21.9738C59.4697 22.1372 59.5864 22.3939 59.5981 22.7557H58.7111C58.6995 22.639 58.6645 22.5457 58.5944 22.4756C58.5244 22.4056 58.4427 22.3823 58.3377 22.3823L58.326 22.3473Z" fill="#4E4540"/>
<path d="M62.6904 25.1131V21.7522H63.5073V25.1131H62.6904Z" fill="#4E4540"/>
<path d="M66.9266 24.658C66.5882 24.3313 66.4248 23.9228 66.4248 23.421C66.4248 22.9192 66.5882 22.5107 66.9266 22.184C67.265 21.8572 67.6735 21.6938 68.152 21.6938C68.5254 21.6938 68.8638 21.7989 69.1439 21.9973C69.4357 22.1957 69.634 22.4757 69.7507 22.8258H68.7705C68.6421 22.5808 68.4437 22.4524 68.152 22.4524C67.8602 22.4524 67.6501 22.5341 67.4868 22.7208C67.3234 22.8959 67.2417 23.1293 67.2417 23.421C67.2417 23.7128 67.3234 23.9462 67.4868 24.1212C67.6501 24.2963 67.8602 24.3896 68.1403 24.3896C68.3387 24.3896 68.4904 24.3429 68.6188 24.2496C68.7471 24.1562 68.8288 24.0162 68.8638 23.8645H67.9186V23.246H69.7507V23.8645C69.6924 24.1679 69.5173 24.4596 69.2489 24.728C69.1206 24.8564 68.9572 24.9614 68.7588 25.0431C68.5604 25.1248 68.362 25.1598 68.1403 25.1598C67.6618 25.1598 67.2534 24.9965 66.9149 24.6697L66.9266 24.658Z" fill="#4E4540"/>
<path d="M74.862 21.7405H75.6789V25.1131H74.862L73.4966 22.9892V25.1131H72.6797V21.7405H73.4966L74.862 23.8644V21.7405Z" fill="#4E4540"/>
</g>
<defs>
<clipPath id="clip0_143_3131">
<rect width="100" height="25.0088" fill="white" transform="translate(0.116211 0.139404)"/>
</clipPath>
</defs>
</svg>
