<svg width="84" height="40" viewBox="0 0 84 40" fill="none" xmlns="http://www.w3.org/2000/svg">
<path d="M13.6658 1.59229H13.8485C23.3767 23.4158 24.0163 24.6557 24.0163 24.6557C25.3737 27.6708 26.6528 27.71 27.3968 27.7753V28.0755H14.227V27.7753C17.2421 27.7753 14.9841 23.3766 14.9841 23.3766L13.7833 20.7792H6.40869C5.65166 22.5152 6.33038 27.7753 10.8465 27.7753V28.0755H0V27.7753C1.13555 27.6969 3.15866 27.3967 6.05628 20.7792L13.6527 1.59229H13.6658ZM9.86756 11.9819L6.51311 20.4529H13.6266L9.86756 11.9819Z" fill="#4E4540"/>
<path d="M37.0035 27.7754V28.0756H27.5928V27.7754C29.0285 27.3577 29.0546 25.7783 29.0546 23.8205V4.29421C29.0546 2.97593 28.5978 2.45384 27.0576 1.87954V1.57933L35.4503 0V23.8205C35.4503 25.8958 35.633 27.3968 36.9904 27.7754H37.0035Z" fill="#4E4540"/>
<path d="M47.4194 27.7752V28.0754H38.0087V27.7752C39.4444 27.3575 39.4705 25.739 39.4705 23.8203V14.6315C39.4705 13.3132 39.0529 12.7911 37.5127 12.2168V11.9166L45.8662 10.3373V23.8073C45.8662 25.8826 46.0489 27.3836 47.4064 27.7622L47.4194 27.7752ZM38.6874 5.79509C38.6874 3.79808 40.2667 2.21875 42.2637 2.21875C44.2607 2.21875 45.8792 3.79808 45.8792 5.79509C45.8792 7.7921 44.2607 9.37142 42.2637 9.37142C40.2667 9.37142 38.6874 7.7921 38.6874 5.79509Z" fill="#4E4540"/>
<path d="M61.2276 26.3917C61.2276 26.3917 59.7918 28.4278 55.4323 28.4278C51.0729 28.4278 48.7365 27.1487 48.7365 27.1487V22.2149H49.0758C49.8329 25.7129 52.9524 28.0885 55.4323 28.0885C58.1081 28.0885 58.7085 24.969 55.85 23.0894L52.0518 20.7922C48.5146 18.4559 47.5748 14.7359 49.872 12.1777C49.872 12.1777 51.2686 10.3765 55.5498 10.3765C59.831 10.3765 61.6844 11.4337 61.6844 11.4337V15.2711H61.345C60.6663 11.8905 57.7295 10.7158 55.5498 10.7158C53.109 10.7158 51.9343 13.1566 55.2104 15.2319L59.0087 17.6075C62.4284 19.6828 63.3029 23.9248 61.2276 26.4178V26.3917Z" fill="#4E4540"/>
<path d="M83.1038 25.6738C82.5817 27.3315 80.6239 28.4148 78.2484 28.4148C78.2484 28.4148 74.0716 28.4148 73.7322 25.0342C73.2363 26.9921 71.3176 28.4148 68.6549 28.4148C67.2191 28.4148 63.9561 27.7752 63.9561 24.5774C63.9561 20.8183 67.0103 20.1005 73.7061 18.5211V16.1065C73.7061 12.1908 71.4872 10.0893 68.8898 11.4337C68.8898 11.4337 68.0675 11.9167 69.3467 12.3735C69.9862 12.5954 70.4039 13.1305 70.7041 13.8092C71.2654 15.2058 70.6258 16.7069 69.2422 17.3073C67.8848 17.8294 66.3446 17.1898 65.7834 15.8454C65.4049 14.8665 65.6006 13.744 66.2402 13.0653C66.697 12.5693 67.3627 11.9036 68.7593 11.1466C70.4561 10.246 72.2965 10.3504 72.2965 10.3504C77.2303 10.3504 79.9713 13.4307 79.9713 17.8816V23.4941C79.9713 23.4941 79.9713 26.209 81.7725 26.1306C81.7725 26.1306 82.7122 26.1306 82.895 25.4911L83.1169 25.6738H83.1038ZM73.6931 18.8997C70.6127 19.5784 70.6388 21.8756 70.6388 23.6376C70.6388 23.6376 70.5997 26.1176 72.1007 26.1176C72.7403 26.1176 73.2624 25.5955 73.68 24.6818V18.8866L73.6931 18.8997Z" fill="#4E4540"/>
<path d="M13.4824 33.7922H15.5316C16.0146 33.7922 16.3931 33.9097 16.6802 34.1446C16.9674 34.3796 17.111 34.6667 17.111 35.0322C17.111 35.5673 16.7977 35.9198 16.1843 36.1155C16.4975 36.1547 16.7586 36.2852 16.9413 36.5071C17.124 36.729 17.2284 36.977 17.2284 37.2772C17.2284 37.6557 17.0849 37.9559 16.8108 38.1778C16.5367 38.3997 16.1581 38.5041 15.6622 38.5041H13.5085V33.7922H13.4824ZM14.631 34.6667V35.6848H15.3881C15.5577 35.6848 15.6883 35.6457 15.7927 35.5543C15.8971 35.4629 15.9493 35.3455 15.9493 35.1758C15.9493 35.0061 15.8971 34.8756 15.7927 34.7973C15.6883 34.7059 15.5577 34.6667 15.3881 34.6667H14.631ZM14.631 37.6296H15.4925C15.6491 37.6296 15.7796 37.5774 15.8841 37.486C15.9885 37.3947 16.0407 37.2642 16.0407 37.0945C16.0407 36.9248 15.9885 36.7943 15.8971 36.7029C15.7927 36.5985 15.6752 36.5593 15.5186 36.5593H14.6441V37.6296H14.631Z" fill="#4E4540"/>
<path d="M21.4958 37.8646C21.026 37.4078 20.791 36.8335 20.791 36.1287C20.791 35.4239 21.026 34.8626 21.4958 34.4058C21.9657 33.9489 22.54 33.7271 23.2057 33.7271C23.8714 33.7271 24.4587 33.9489 24.9156 34.4058C25.3724 34.8626 25.6073 35.4369 25.6073 36.1287C25.6073 36.8205 25.3724 37.4078 24.9156 37.8646C24.4457 38.3215 23.8844 38.5434 23.2057 38.5434C22.527 38.5434 21.9657 38.3215 21.4958 37.8646ZM24.1063 37.1207C24.3282 36.8727 24.4457 36.5464 24.4457 36.1287C24.4457 35.711 24.3282 35.3847 24.1063 35.1498C23.8844 34.9018 23.5842 34.7843 23.2057 34.7843C22.8272 34.7843 22.527 34.9018 22.3051 35.1498C22.0832 35.3977 21.9657 35.7241 21.9657 36.1287C21.9657 36.5333 22.0832 36.8727 22.3051 37.1207C22.527 37.3687 22.8272 37.4861 23.2057 37.4861C23.5842 37.4861 23.8844 37.3687 24.1063 37.1207Z" fill="#4E4540"/>
<path d="M29.4062 36.6117V33.8054H30.5549V36.6117C30.5549 36.8988 30.6201 37.1077 30.7637 37.2643C30.9073 37.4209 31.1031 37.4862 31.3771 37.4862C31.6512 37.4862 31.847 37.4079 31.9906 37.2643C32.1342 37.1077 32.1994 36.8988 32.1994 36.6117V33.8054H33.3481V36.6117C33.3481 37.0293 33.2567 37.3818 33.0609 37.682C32.8651 37.9822 32.6171 38.2041 32.3169 38.3476C32.0167 38.4912 31.7035 38.5565 31.351 38.5565C30.8028 38.5565 30.346 38.3868 29.9675 38.0474C29.589 37.7081 29.4062 37.2251 29.4062 36.6117Z" fill="#4E4540"/>
<path d="M37.0684 34.6667V33.7922H40.7883V34.6667H39.4961V38.5041H38.3475V34.6667H37.0684Z" fill="#4E4540"/>
<path d="M44.5332 38.5041V33.7922H45.6818V38.5041H44.5332Z" fill="#4E4540"/>
<path d="M51.8951 38.5565C51.2164 38.5565 50.6552 38.3347 50.1853 37.8778C49.7154 37.421 49.4805 36.8467 49.4805 36.1419C49.4805 35.437 49.7154 34.8758 50.1853 34.419C50.6552 33.9621 51.2295 33.7402 51.8951 33.7402C52.5608 33.7402 53.1482 33.9621 53.605 34.419C54.0618 34.8758 54.2968 35.4501 54.2968 36.1419C54.2968 36.5334 54.2185 36.8989 54.0618 37.2252C53.9052 37.5515 53.6833 37.8256 53.4092 38.0475L54.362 39.2875H52.9785L52.4042 38.5043C52.2215 38.5435 52.0518 38.5565 51.8821 38.5565H51.8951ZM50.9815 35.1629C50.7596 35.4109 50.6421 35.7372 50.6421 36.1419C50.6421 36.5465 50.7596 36.8858 50.9815 37.1338C51.2034 37.3818 51.5036 37.4993 51.8821 37.4993C52.2606 37.4993 52.5608 37.3818 52.7827 37.1338C53.0046 36.8858 53.1221 36.5595 53.1221 36.1419C53.1221 35.7242 53.0046 35.3979 52.7827 35.1629C52.5608 34.9149 52.2606 34.7975 51.8821 34.7975C51.5036 34.7975 51.2034 34.9149 50.9815 35.1629Z" fill="#4E4540"/>
<path d="M58.1348 36.6117V33.8054H59.2834V36.6117C59.2834 36.8988 59.3486 37.1077 59.4922 37.2643C59.6358 37.4209 59.8316 37.4862 60.1057 37.4862C60.3798 37.4862 60.5756 37.4079 60.7191 37.2643C60.8627 37.1077 60.928 36.8988 60.928 36.6117V33.8054H62.0766V36.6117C62.0766 37.0293 61.9852 37.3818 61.7894 37.682C61.5936 37.9822 61.3456 38.2041 61.0454 38.3476C60.7452 38.4912 60.432 38.5565 60.0796 38.5565C59.5314 38.5565 59.0745 38.3868 58.696 38.0474C58.3175 37.7081 58.1348 37.2251 58.1348 36.6117Z" fill="#4E4540"/>
<path d="M68.9675 33.7793V34.6538H67.2707V35.6719H68.7717V36.5464H67.2707V37.6428H68.9675V38.5173H66.1221V33.7924H68.9675V33.7793Z" fill="#4E4540"/>
</svg>
